<mxfile host="app.diagrams.net" modified="2024-03-09T04:53:25.470Z" agent="Mozilla/5.0 (Windows NT 10.0; Win64; x64) AppleWebKit/537.36 (KHTML, like Gecko) Chrome/122.0.0.0 Safari/537.36" etag="RgwiB34d_FCOpQhcbs1c" version="24.0.1" type="github">
  <diagram name="Page-1" id="FVh7PWLFT7Xvijc2l2Jd">
    <mxGraphModel dx="1909" dy="2356" grid="1" gridSize="10" guides="1" tooltips="1" connect="1" arrows="1" fold="1" page="1" pageScale="1" pageWidth="850" pageHeight="1100" math="0" shadow="0">
      <root>
        <mxCell id="0" />
        <mxCell id="1" parent="0" />
        <mxCell id="1CeSl-3BmUiMjb2vYE6M-8" value="" style="edgeStyle=orthogonalEdgeStyle;rounded=0;orthogonalLoop=1;jettySize=auto;html=1;" edge="1" parent="1" source="1CeSl-3BmUiMjb2vYE6M-2" target="1CeSl-3BmUiMjb2vYE6M-6">
          <mxGeometry relative="1" as="geometry" />
        </mxCell>
        <mxCell id="1CeSl-3BmUiMjb2vYE6M-12" style="edgeStyle=orthogonalEdgeStyle;rounded=0;orthogonalLoop=1;jettySize=auto;html=1;" edge="1" parent="1" source="1CeSl-3BmUiMjb2vYE6M-2">
          <mxGeometry relative="1" as="geometry">
            <mxPoint x="170" y="430" as="targetPoint" />
          </mxGeometry>
        </mxCell>
        <mxCell id="1CeSl-3BmUiMjb2vYE6M-14" value="" style="edgeStyle=orthogonalEdgeStyle;rounded=0;orthogonalLoop=1;jettySize=auto;html=1;" edge="1" parent="1" source="1CeSl-3BmUiMjb2vYE6M-2" target="1CeSl-3BmUiMjb2vYE6M-13">
          <mxGeometry relative="1" as="geometry" />
        </mxCell>
        <mxCell id="1CeSl-3BmUiMjb2vYE6M-2" value="id&lt;div&gt;First Name&lt;/div&gt;&lt;div&gt;Last Name&lt;/div&gt;&lt;div&gt;Phone number&lt;/div&gt;&lt;div&gt;Email&lt;/div&gt;&lt;div&gt;&lt;br&gt;&lt;/div&gt;" style="rounded=0;whiteSpace=wrap;html=1;" vertex="1" parent="1">
          <mxGeometry x="110" y="230" width="120" height="130" as="geometry" />
        </mxCell>
        <mxCell id="1CeSl-3BmUiMjb2vYE6M-37" value="" style="edgeStyle=orthogonalEdgeStyle;rounded=0;orthogonalLoop=1;jettySize=auto;html=1;" edge="1" parent="1" source="1CeSl-3BmUiMjb2vYE6M-5" target="1CeSl-3BmUiMjb2vYE6M-2">
          <mxGeometry relative="1" as="geometry" />
        </mxCell>
        <mxCell id="1CeSl-3BmUiMjb2vYE6M-5" value="&lt;font style=&quot;font-size: 20px;&quot;&gt;Admin&lt;/font&gt;" style="text;html=1;align=center;verticalAlign=middle;whiteSpace=wrap;rounded=0;" vertex="1" parent="1">
          <mxGeometry x="140" y="130" width="60" height="50" as="geometry" />
        </mxCell>
        <mxCell id="1CeSl-3BmUiMjb2vYE6M-11" style="edgeStyle=orthogonalEdgeStyle;rounded=0;orthogonalLoop=1;jettySize=auto;html=1;" edge="1" parent="1" source="1CeSl-3BmUiMjb2vYE6M-6" target="1CeSl-3BmUiMjb2vYE6M-10">
          <mxGeometry relative="1" as="geometry" />
        </mxCell>
        <mxCell id="1CeSl-3BmUiMjb2vYE6M-38" style="edgeStyle=orthogonalEdgeStyle;rounded=0;orthogonalLoop=1;jettySize=auto;html=1;entryX=0;entryY=0.5;entryDx=0;entryDy=0;" edge="1" parent="1" source="1CeSl-3BmUiMjb2vYE6M-6" target="1CeSl-3BmUiMjb2vYE6M-31">
          <mxGeometry relative="1" as="geometry" />
        </mxCell>
        <mxCell id="1CeSl-3BmUiMjb2vYE6M-6" value="id&lt;div&gt;City&lt;/div&gt;&lt;div&gt;District&lt;/div&gt;&lt;div&gt;Street&lt;/div&gt;&lt;div&gt;Home_number&lt;/div&gt;&lt;div&gt;Description&lt;/div&gt;" style="rounded=0;whiteSpace=wrap;html=1;" vertex="1" parent="1">
          <mxGeometry x="310" y="70" width="115" height="160" as="geometry" />
        </mxCell>
        <mxCell id="1CeSl-3BmUiMjb2vYE6M-10" value="Address" style="text;html=1;align=center;verticalAlign=middle;whiteSpace=wrap;rounded=0;" vertex="1" parent="1">
          <mxGeometry x="337.5" y="-30" width="60" height="30" as="geometry" />
        </mxCell>
        <mxCell id="1CeSl-3BmUiMjb2vYE6M-28" value="" style="edgeStyle=orthogonalEdgeStyle;rounded=0;orthogonalLoop=1;jettySize=auto;html=1;" edge="1" parent="1" source="1CeSl-3BmUiMjb2vYE6M-13" target="1CeSl-3BmUiMjb2vYE6M-27">
          <mxGeometry relative="1" as="geometry" />
        </mxCell>
        <mxCell id="1CeSl-3BmUiMjb2vYE6M-13" value="id&lt;div&gt;First Name&lt;/div&gt;&lt;div&gt;Last Name&lt;/div&gt;&lt;div&gt;Phone number&lt;/div&gt;&lt;div&gt;Email&lt;/div&gt;&lt;div&gt;Order_Id&lt;/div&gt;&lt;div&gt;Payments_Type&lt;/div&gt;&lt;div&gt;&lt;br&gt;&lt;/div&gt;" style="rounded=0;whiteSpace=wrap;html=1;" vertex="1" parent="1">
          <mxGeometry x="110" y="440" width="120" height="240" as="geometry" />
        </mxCell>
        <mxCell id="1CeSl-3BmUiMjb2vYE6M-21" value="" style="edgeStyle=orthogonalEdgeStyle;rounded=0;orthogonalLoop=1;jettySize=auto;html=1;" edge="1" parent="1" source="1CeSl-3BmUiMjb2vYE6M-16" target="1CeSl-3BmUiMjb2vYE6M-20">
          <mxGeometry relative="1" as="geometry" />
        </mxCell>
        <mxCell id="1CeSl-3BmUiMjb2vYE6M-23" value="" style="edgeStyle=orthogonalEdgeStyle;rounded=0;orthogonalLoop=1;jettySize=auto;html=1;" edge="1" parent="1" source="1CeSl-3BmUiMjb2vYE6M-16">
          <mxGeometry relative="1" as="geometry">
            <mxPoint x="520" y="160" as="targetPoint" />
          </mxGeometry>
        </mxCell>
        <mxCell id="1CeSl-3BmUiMjb2vYE6M-32" value="" style="edgeStyle=orthogonalEdgeStyle;rounded=0;orthogonalLoop=1;jettySize=auto;html=1;" edge="1" parent="1" source="1CeSl-3BmUiMjb2vYE6M-16" target="1CeSl-3BmUiMjb2vYE6M-31">
          <mxGeometry relative="1" as="geometry" />
        </mxCell>
        <mxCell id="1CeSl-3BmUiMjb2vYE6M-16" value="Id&lt;div&gt;&lt;span style=&quot;background-color: initial;&quot;&gt;Product_Id&lt;br&gt;Employee_Id&lt;/span&gt;&lt;br&gt;&lt;/div&gt;&lt;div&gt;Customer_Id&lt;/div&gt;&lt;div&gt;CreatedAt&lt;/div&gt;&lt;div&gt;AcceptedAt&lt;/div&gt;&lt;div&gt;Quantity&lt;/div&gt;&lt;div&gt;Address_Id&lt;br&gt;&lt;/div&gt;&lt;div&gt;Status&lt;/div&gt;" style="rounded=0;whiteSpace=wrap;html=1;" vertex="1" parent="1">
          <mxGeometry x="460" y="200" width="120" height="160" as="geometry" />
        </mxCell>
        <mxCell id="1CeSl-3BmUiMjb2vYE6M-18" style="edgeStyle=orthogonalEdgeStyle;rounded=0;orthogonalLoop=1;jettySize=auto;html=1;entryX=0.999;entryY=0.586;entryDx=0;entryDy=0;entryPerimeter=0;" edge="1" parent="1" source="1CeSl-3BmUiMjb2vYE6M-16" target="1CeSl-3BmUiMjb2vYE6M-13">
          <mxGeometry relative="1" as="geometry" />
        </mxCell>
        <mxCell id="1CeSl-3BmUiMjb2vYE6M-25" style="edgeStyle=orthogonalEdgeStyle;rounded=0;orthogonalLoop=1;jettySize=auto;html=1;entryX=0.5;entryY=1;entryDx=0;entryDy=0;" edge="1" parent="1" source="1CeSl-3BmUiMjb2vYE6M-20" target="1CeSl-3BmUiMjb2vYE6M-24">
          <mxGeometry relative="1" as="geometry" />
        </mxCell>
        <mxCell id="1CeSl-3BmUiMjb2vYE6M-30" value="" style="edgeStyle=orthogonalEdgeStyle;rounded=0;orthogonalLoop=1;jettySize=auto;html=1;" edge="1" parent="1" source="1CeSl-3BmUiMjb2vYE6M-20" target="1CeSl-3BmUiMjb2vYE6M-29">
          <mxGeometry relative="1" as="geometry" />
        </mxCell>
        <mxCell id="1CeSl-3BmUiMjb2vYE6M-20" value="Id&lt;div&gt;Product_Name&lt;/div&gt;&lt;div&gt;Category_Id&lt;/div&gt;&lt;div&gt;Price&lt;/div&gt;&lt;div&gt;Desctiption&lt;/div&gt;" style="rounded=0;whiteSpace=wrap;html=1;" vertex="1" parent="1">
          <mxGeometry x="660" y="200" width="120" height="160" as="geometry" />
        </mxCell>
        <mxCell id="1CeSl-3BmUiMjb2vYE6M-24" value="Product" style="text;html=1;align=center;verticalAlign=middle;whiteSpace=wrap;rounded=0;" vertex="1" parent="1">
          <mxGeometry x="690" y="140" width="60" height="30" as="geometry" />
        </mxCell>
        <mxCell id="1CeSl-3BmUiMjb2vYE6M-26" value="Order" style="text;html=1;align=center;verticalAlign=middle;whiteSpace=wrap;rounded=0;" vertex="1" parent="1">
          <mxGeometry x="490" y="140" width="60" height="30" as="geometry" />
        </mxCell>
        <mxCell id="1CeSl-3BmUiMjb2vYE6M-27" value="Customer" style="text;html=1;align=center;verticalAlign=middle;whiteSpace=wrap;rounded=0;" vertex="1" parent="1">
          <mxGeometry x="140" y="710" width="60" height="30" as="geometry" />
        </mxCell>
        <mxCell id="1CeSl-3BmUiMjb2vYE6M-29" value="Id&lt;div&gt;Category_Name&lt;/div&gt;&lt;div&gt;&lt;br&gt;&lt;/div&gt;" style="rounded=0;whiteSpace=wrap;html=1;" vertex="1" parent="1">
          <mxGeometry x="660" y="440" width="120" height="80" as="geometry" />
        </mxCell>
        <mxCell id="1CeSl-3BmUiMjb2vYE6M-31" value="Id&lt;div&gt;&lt;span style=&quot;background-color: initial;&quot;&gt;Employee_Name&lt;/span&gt;&lt;br&gt;&lt;/div&gt;&lt;div&gt;&lt;span style=&quot;background-color: initial;&quot;&gt;Phone&lt;/span&gt;&lt;br&gt;&lt;/div&gt;&lt;div&gt;&lt;span style=&quot;background-color: initial;&quot;&gt;Email&lt;/span&gt;&lt;/div&gt;&lt;div&gt;&lt;span style=&quot;background-color: initial;&quot;&gt;Salary&lt;/span&gt;&lt;/div&gt;&lt;div&gt;Address_Id&lt;br&gt;&lt;/div&gt;&lt;div&gt;Status&lt;/div&gt;&lt;div&gt;Position&lt;/div&gt;&lt;div&gt;Desctiption&lt;/div&gt;" style="rounded=0;whiteSpace=wrap;html=1;" vertex="1" parent="1">
          <mxGeometry x="460" y="440" width="120" height="160" as="geometry" />
        </mxCell>
        <mxCell id="1CeSl-3BmUiMjb2vYE6M-34" value="" style="edgeStyle=orthogonalEdgeStyle;rounded=0;orthogonalLoop=1;jettySize=auto;html=1;" edge="1" parent="1" source="1CeSl-3BmUiMjb2vYE6M-33" target="1CeSl-3BmUiMjb2vYE6M-31">
          <mxGeometry relative="1" as="geometry" />
        </mxCell>
        <mxCell id="1CeSl-3BmUiMjb2vYE6M-33" value="Employee" style="text;html=1;align=center;verticalAlign=middle;whiteSpace=wrap;rounded=0;" vertex="1" parent="1">
          <mxGeometry x="490" y="630" width="60" height="30" as="geometry" />
        </mxCell>
        <mxCell id="1CeSl-3BmUiMjb2vYE6M-36" value="" style="edgeStyle=orthogonalEdgeStyle;rounded=0;orthogonalLoop=1;jettySize=auto;html=1;" edge="1" parent="1" source="1CeSl-3BmUiMjb2vYE6M-35" target="1CeSl-3BmUiMjb2vYE6M-29">
          <mxGeometry relative="1" as="geometry" />
        </mxCell>
        <mxCell id="1CeSl-3BmUiMjb2vYE6M-35" value="Category" style="text;html=1;align=center;verticalAlign=middle;whiteSpace=wrap;rounded=0;" vertex="1" parent="1">
          <mxGeometry x="690" y="545" width="60" height="30" as="geometry" />
        </mxCell>
        <mxCell id="1CeSl-3BmUiMjb2vYE6M-39" value="Permission&lt;div&gt;&lt;br&gt;&lt;/div&gt;&lt;div&gt;Id&lt;/div&gt;&lt;div&gt;Permission_Name&lt;/div&gt;" style="rounded=0;whiteSpace=wrap;html=1;" vertex="1" parent="1">
          <mxGeometry x="550" y="690" width="120" height="160" as="geometry" />
        </mxCell>
        <mxCell id="1CeSl-3BmUiMjb2vYE6M-43" style="edgeStyle=orthogonalEdgeStyle;rounded=0;orthogonalLoop=1;jettySize=auto;html=1;entryX=0.25;entryY=1;entryDx=0;entryDy=0;" edge="1" parent="1" source="1CeSl-3BmUiMjb2vYE6M-40" target="1CeSl-3BmUiMjb2vYE6M-31">
          <mxGeometry relative="1" as="geometry" />
        </mxCell>
        <mxCell id="1CeSl-3BmUiMjb2vYE6M-40" value="Role&lt;div&gt;&lt;br&gt;&lt;/div&gt;&lt;div&gt;Id&lt;/div&gt;&lt;div&gt;Permission_Id&lt;/div&gt;&lt;div&gt;Role_name&lt;/div&gt;" style="rounded=0;whiteSpace=wrap;html=1;" vertex="1" parent="1">
          <mxGeometry x="290" y="630" width="120" height="200" as="geometry" />
        </mxCell>
        <mxCell id="1CeSl-3BmUiMjb2vYE6M-42" style="edgeStyle=orthogonalEdgeStyle;rounded=0;orthogonalLoop=1;jettySize=auto;html=1;entryX=-0.002;entryY=0.575;entryDx=0;entryDy=0;entryPerimeter=0;" edge="1" parent="1" source="1CeSl-3BmUiMjb2vYE6M-40" target="1CeSl-3BmUiMjb2vYE6M-39">
          <mxGeometry relative="1" as="geometry" />
        </mxCell>
      </root>
    </mxGraphModel>
  </diagram>
</mxfile>
